# Blender 3.3.1
# www.blender.org
mtllib StoneVariant6.mtl
g Stone6_Cube_cell.029
v 0.249812 0.482593 0.211932
v -0.581006 -0.021942 0.187223
v 0.507705 0.285745 0.494789
v 0.174845 -0.202143 0.708517
v -0.584677 -0.187441 0.314897
v -0.601374 -0.058933 0.112223
v 0.584878 0.362517 -0.103045
v 0.082459 -0.355818 0.484693
v 0.094663 -0.333552 0.553868
v -0.027567 -0.340452 0.483990
v -0.543216 -0.245610 0.288242
v -0.562034 -0.225888 0.095664
v -0.593355 -0.210003 0.291892
v -0.612353 -0.192927 0.175393
v 0.532087 0.273966 -0.225868
v 0.535612 0.388572 -0.099852
v 0.350527 0.471588 -0.011538
v 0.298762 0.423562 -0.065141
v -0.270826 -0.235322 -0.299092
v 0.128544 -0.309855 -0.130391
v 0.425097 0.099651 -0.419146
v 0.140949 -0.309008 -0.128040
v 0.421602 0.093970 -0.425445
v 0.572363 0.340146 -0.152494
v 0.575734 0.370407 -0.119182
v -0.277000 -0.050993 -0.469028
v -0.122634 0.030118 -0.504231
v -0.282933 -0.054160 -0.467630
v -0.286927 -0.068139 -0.455867
v -0.329739 -0.220650 -0.327336
v 0.128544 -0.309855 -0.130391
v 0.140949 -0.309008 -0.128040
v 0.425097 0.099651 -0.419146
v 0.532087 0.273966 -0.225868
v 0.535612 0.388572 -0.099852
v 0.350527 0.471588 -0.011538
v 0.298762 0.423562 -0.065141
v 0.421602 0.093970 -0.425445
v 0.572363 0.340146 -0.152494
v 0.575734 0.370407 -0.119182
v -0.270826 -0.235322 -0.299092
v -0.329739 -0.220650 -0.327336
v -0.122634 0.030118 -0.504231
v -0.277000 -0.050993 -0.469028
v -0.282933 -0.054160 -0.467630
v -0.286927 -0.068139 -0.455867
vn -0.3687 0.5718 0.7328
vn -0.3826 -0.5834 0.7165
vn -0.3779 -0.5964 0.7081
vn -0.3692 -0.6050 0.7055
vn 0.8330 -0.5521 0.0371
vn -0.3676 0.5720 0.7333
vn 0.4716 0.8649 0.1719
vn 0.4693 0.8667 0.1688
vn -0.4949 0.8279 -0.2638
vn -0.3695 0.5727 0.7317
vn -0.9655 0.1722 0.1954
vn -0.5800 -0.8142 -0.0248
vn -0.3776 -0.6037 0.7022
vn -0.1473 -0.9853 -0.0865
vn -0.1153 -0.9899 -0.0826
vn -0.1328 -0.9364 0.3248
vn -0.4951 0.8271 -0.2660
vn 0.8254 -0.5634 0.0357
vn 0.8325 -0.5528 0.0366
vn 0.8860 0.2951 -0.3577
vn 0.8348 -0.5493 0.0372
vn 0.4696 0.8685 0.1585
vn -0.1513 -0.9845 -0.0882
vn -0.5021 0.8219 -0.2690
vn -0.8656 -0.1538 -0.4766
vn -0.8643 -0.1594 -0.4771
vn -0.8635 -0.1662 -0.4762
vn -0.5775 -0.8160 -0.0271
vn 0.0106 0.7396 -0.6729
vn -0.9693 0.1651 0.1821
vn 0.1829 -0.6631 -0.7259
vt 0.000000 0.000000
vt 1.000000 0.000000
vt 1.000000 1.000000
vt 0.000000 0.000000
vt 1.000000 0.000000
vt 1.000000 1.000000
vt 0.000000 0.000000
vt 1.000000 0.000000
vt 1.000000 1.000000
vt 0.000000 0.000000
vt 1.000000 0.000000
vt 1.000000 1.000000
vt 1.000000 0.000000
vt 0.000000 0.000000
vt 1.000000 0.000000
vt 0.000000 0.000000
vt 1.000000 1.000000
vt 1.000000 0.000000
vt 0.000000 0.000000
vt 1.000000 0.000000
vt 1.000000 1.000000
vt 0.000000 0.000000
vt 1.000000 0.000000
vt 1.000000 1.000000
vt 0.000000 0.000000
vt 1.000000 1.000000
vt 1.000000 0.000000
vt 1.000000 0.000000
vt 0.000000 0.000000
vt 0.000000 0.000000
vt 1.000000 0.000000
vt 1.000000 1.000000
vt 0.000000 0.000000
vt 1.000000 1.000000
vt 1.000000 0.000000
vt 0.155502 0.722975
vt 0.176354 0.727303
vt 0.195479 0.707326
vt 0.187818 0.699319
vt 0.416993 0.134336
vt 0.437544 0.083333
vt 0.125962 0.703876
vt 0.438061 0.081993
vt 0.125000 0.703253
vt 0.375000 0.046747
vt 0.166724 0.730184
vt 0.172177 0.731627
vt 0.385665 0.135460
vt 0.125000 0.634053
vt 0.375000 0.115947
vt 0.386084 0.136210
vt 0.388371 0.136693
vt 0.413340 0.141866
vt 1.000000 0.098955
vt 0.098955 0.098955
vt 0.105172 0.000000
vt 1.000000 0.092885
vt 0.092885 0.092885
vt 0.048757 0.048757
vt 1.000000 0.048757
vt 0.094996 0.000000
vt 1.000000 0.905004
vt 0.247668 0.000000
vt 1.000000 0.752332
vt 1.000000 0.260244
vt 0.260244 0.260244
vt 0.090175 0.000000
vt 1.000000 0.909825
vt 0.972418 0.035287
vt 1.000000 0.249155
vt 0.249155 0.249155
vt 0.751384 0.000000
vt 0.751384 0.751384
vt 0.098633 0.098633
vt 1.000000 0.098633
vt 0.874407 0.000000
vt 1.000000 0.102549
vt 0.125593 0.000000
vt 0.118313 0.082579
vt 1.000000 0.083912
vt 0.083912 0.083912
vt 0.095905 0.000000
vt 0.904095 0.000000
vt 1.000000 0.104001
vt 0.104001 0.104001
s 0
g off
g Stone6_Material
usemtl Material
f 1/1/1 5/11/1 4/9/1
f 5/10/2 13/31/2 4/9/2
f 13/30/3 10/23/3 4/9/3
f 10/22/4 9/20/4 4/9/4
f 34/61/5 3/8/5 4/9/5 9/21/5 33/59/5
f 3/7/6 1/2/6 4/9/6
f 3/7/7 7/15/7 1/3/7
f 36/65/8 1/3/8 7/16/8 35/63/8
f 1/3/9 36/66/9 37/67/9 2/5/9
f 2/4/10 5/11/10 1/3/10
f 2/4/11 13/31/11 5/12/11
f 14/33/12 11/27/12 13/32/12
f 11/25/13 10/23/13 13/32/13
f 31/54/14 10/24/14 41/74/14
f 8/18/15 10/24/15 31/55/15 32/56/15
f 8/19/16 9/20/16 10/24/16
f 44/80/17 2/5/17 37/68/17 43/79/17
f 9/21/18 8/19/18 32/57/18
f 38/69/19 33/60/19 9/21/19 32/58/19
f 40/72/20 7/15/20 39/70/20
f 39/71/21 7/16/21 3/8/21 34/62/21
f 7/17/22 40/73/22 35/64/22
f 12/29/23 42/76/23 41/75/23 10/24/23 11/26/23
f 6/13/24 2/6/24 44/81/24 45/82/24
f 14/34/25 6/14/25 45/83/25 46/84/25
f 42/77/26 14/34/26 46/85/26
f 12/28/27 14/34/27 42/78/27
f 12/29/28 11/27/28 14/34/28
f 16/37/29 25/47/29 24/46/29 15/36/29 21/42/29 23/44/29 27/49/29 18/39/29 17/38/29
f 6/14/30 14/35/30 13/32/30 2/6/30
f 27/50/31 23/45/31 22/43/31 20/41/31 19/40/31 30/53/31 29/52/31 28/51/31 26/48/31
