# Blender 3.3.1
# www.blender.org
mtllib StoneVariant4.mtl
g Cube_cell.032_Cube_cell.031
v 15.524809 0.018086 3.316794
v 15.514020 0.010510 3.219496
v 15.571980 0.122748 3.712344
v 15.600843 0.648408 3.567036
v 15.551177 0.573476 3.130036
v 15.505097 0.194646 2.981424
v 15.457921 0.059871 3.736353
v 15.019573 0.125403 3.994007
v 15.504841 0.667616 3.692948
v 15.338070 0.502337 3.954773
v 14.985777 0.563707 3.149182
v 14.908791 0.522179 3.153367
v 15.566808 0.120693 3.720343
v 15.315108 0.388696 4.009727
v 15.497898 0.561435 3.066228
v 15.065795 0.542240 3.012429
v 15.087966 0.538609 2.988596
v 15.027575 0.156660 4.008966
v 15.306601 0.340066 2.792249
v 15.171532 0.346776 2.782845
v 14.861809 0.191667 2.985267
v 14.754543 0.100820 3.102291
v 14.894642 0.110436 3.666588
v 14.770059 0.084178 3.205338
v 14.749579 0.080436 3.129307
v 14.748612 0.084250 3.124257
v 14.756089 0.216181 3.104264
v 14.760530 0.237089 3.113398
v 14.767957 0.271997 3.128702
v 14.778383 0.320828 3.150250
v 14.806632 0.452796 3.208750
v 14.808459 0.451655 3.216074
v 14.978669 0.164625 3.964344
v 14.982635 0.183297 3.972507
v 14.970078 0.126370 3.945866
v 14.747977 0.158385 3.094744
v 14.748611 0.180694 3.088979
v 14.972839 0.335771 3.879720
v 14.756089 0.216181 3.104264
v 14.760530 0.237089 3.113398
v 14.767957 0.271997 3.128702
v 14.778383 0.320828 3.150250
v 14.806632 0.452796 3.208750
v 14.808459 0.451655 3.216074
v 14.978669 0.164625 3.964344
v 14.970078 0.126370 3.945866
v 14.748612 0.084250 3.124257
v 14.747977 0.158385 3.094744
v 14.748611 0.180694 3.088979
v 14.982635 0.183297 3.972507
v 14.894642 0.110436 3.666588
v 14.770059 0.084178 3.205338
v 14.749579 0.080436 3.129307
v 14.972839 0.335771 3.879720
vn -0.4442 0.8575 0.2597
vn 0.9916 -0.0810 -0.1009
vn 0.9910 -0.0855 -0.1032
vn 0.7412 0.1650 -0.6507
vn 0.0035 -0.7910 -0.6118
vn -0.0225 0.9850 -0.1709
vn -0.0229 0.9855 -0.1681
vn -0.0213 0.9858 -0.1666
vn 0.9918 -0.0804 -0.0989
vn 0.9920 -0.0812 -0.0968
vn 0.5565 -0.8172 0.1499
vn 0.4993 -0.8507 0.1643
vn -0.0799 -0.9931 0.0862
vn -0.0989 -0.9916 0.0840
vn -0.0998 -0.9915 0.0834
vn -0.0997 -0.9921 0.0757
vn -0.0019 -0.7981 -0.6025
vn -0.0001 -0.7923 -0.6101
vn -0.0128 -0.7841 -0.6205
vn -0.6344 0.4187 -0.6498
vn -0.6342 0.4196 -0.6494
vn -0.6302 0.4235 -0.6508
vn -0.6350 0.4213 -0.6475
vn -0.4533 0.8010 -0.3910
vn -0.4498 0.8586 0.2460
vn -0.4434 0.8580 0.2592
vn 0.7980 0.1278 0.5890
vn 0.7994 0.1228 0.5881
vn 0.8010 0.1188 0.5867
vn 0.8216 0.1095 0.5594
vn 0.3884 -0.4828 0.7849
vn 0.3872 -0.4872 0.7827
vn -0.6792 -0.1680 0.7144
vn -0.6870 -0.1851 0.7026
vn -0.1009 -0.9914 0.0838
vn 0.3826 -0.4767 0.7914
vn -0.9192 -0.1525 -0.3632
vn -0.6565 -0.1712 -0.7346
vn -0.6363 0.4143 -0.6507
vn -0.6366 0.4223 -0.6453
vn -0.9625 0.0931 0.2547
vn 0.0835 0.7457 -0.6610
vn -0.0227 0.9857 -0.1668
vn -0.3763 0.4638 0.8020
vt 0.000000 0.000000
vt 1.000000 0.000000
vt 1.000000 1.000000
vt 0.000000 0.000000
vt 1.000000 0.000000
vt 1.000000 1.000000
vt 0.000000 0.000000
vt 1.000000 0.000000
vt 0.000000 0.000000
vt 1.000000 0.000000
vt 1.000000 1.000000
vt 0.000000 0.000000
vt 1.000000 1.000000
vt 1.000000 0.000000
vt 1.000000 1.000000
vt 0.000000 0.000000
vt 1.000000 0.000000
vt 1.000000 0.000000
vt 0.000000 0.000000
vt 1.000000 1.000000
vt 0.000000 0.000000
vt 1.000000 1.000000
vt 1.000000 0.000000
vt 1.000000 0.000000
vt 0.000000 0.000000
vt 1.000000 1.000000
vt 1.000000 0.000000
vt 1.000000 1.000000
vt 0.000000 0.000000
vt 0.000000 0.000000
vt 1.000000 0.000000
vt 1.000000 0.000000
vt 0.000000 0.000000
vt 1.000000 1.000000
vt 0.000000 0.000000
vt 1.000000 0.000000
vt 0.000000 0.000000
vt 1.000000 0.000000
vt 1.000000 1.000000
vt 1.000000 0.000000
vt 0.000000 0.000000
vt 1.000000 1.000000
vt 1.000000 0.000000
vt 0.000000 0.000000
vt 0.000000 0.000000
vt 1.000000 0.000000
vt 0.000000 0.000000
vt 1.000000 0.000000
vt 1.000000 1.000000
vt 1.000000 0.000000
vt 1.000000 1.000000
vt 0.000000 0.000000
vt 0.000000 0.000000
vt 1.000000 0.000000
vt 1.000000 1.000000
vt 0.000000 0.000000
vt 1.000000 0.000000
vt 1.000000 1.000000
vt 0.594646 0.689427
vt 0.607730 0.631063
vt 0.609814 0.621433
vt 0.609447 0.620721
vt 0.593468 0.615847
vt 0.590674 0.616644
vt 0.586008 0.617981
vt 0.579477 0.619868
vt 0.561823 0.625004
vt 0.561809 0.625959
vt 0.581570 0.726448
vt 0.579074 0.727160
vt 0.586720 0.724765
vt 0.600857 0.615651
vt 0.598206 0.614523
vt 0.562090 0.712640
vt 0.727784 0.000000
vt 1.000000 0.272215
vt 1.000000 0.096669
vt 0.096669 0.096669
vt 0.147202 0.000000
vt 0.147202 0.147202
vt 0.321658 0.000000
vt 1.000000 0.678342
vt 0.677632 0.000000
vt 0.322368 0.000000
vt 0.221420 0.221420
vt 1.000000 0.221420
vt 1.000000 0.583976
vt 0.583976 0.583976
vt 1.000000 0.582924
vt 0.582924 0.582924
vt 0.178811 0.000000
vt 1.000000 0.821190
vt 0.276544 0.000000
vt 0.276544 0.276544
vt 0.027018 0.000000
vt 0.027018 0.027018
vt 0.422669 0.000000
vt 0.577331 0.000000
vt 0.414636 0.000000
vt 1.000000 0.585364
vt 1.000000 0.065082
vt 0.065082 0.065082
vt 1.000000 0.002945
vt 0.002946 0.002946
vt 0.135176 0.000000
vt 0.135176 0.135176
s 0
g off
g Cube_cell.032_Material
usemtl Material
f 44/85/1 54/105/1 10/24/1 11/28/1
f 5/12/2 1/2/2 6/15/2
f 1/1/3 2/5/3 6/15/3
f 15/37/4 5/14/4 6/15/4 19/47/4
f 2/4/5 20/50/5 19/48/5 6/15/5
f 17/44/6 16/40/6 15/39/6
f 16/41/7 11/27/7 15/39/7
f 9/21/8 4/10/8 5/13/8
f 4/9/9 1/2/9 5/13/9
f 4/9/10 3/8/10 1/3/10
f 3/7/11 13/32/11 1/3/11
f 13/33/12 7/17/12 1/3/12
f 7/16/13 2/5/13 1/3/13
f 7/16/14 8/18/14 2/6/14
f 52/101/15 2/6/15 8/19/15 51/99/15
f 2/6/16 52/102/16 53/103/16
f 53/104/17 47/91/17 22/57/17 2/6/17
f 22/56/18 20/50/18 2/6/18
f 22/56/19 21/54/19 20/51/19
f 21/53/20 39/75/20 40/77/20 20/51/20
f 20/51/21 40/78/21 41/79/21 16/40/21
f 16/41/22 17/43/22 20/51/22
f 16/42/23 41/80/23 42/81/23 12/31/23
f 12/30/24 11/27/24 16/42/24
f 12/30/25 43/83/25 44/86/25 11/28/25
f 10/25/26 9/23/26 11/28/26
f 10/25/27 4/10/27 9/22/27
f 10/25/28 14/36/28 4/11/28
f 14/35/29 13/32/29 4/11/29
f 13/33/30 3/8/30 4/11/30
f 14/35/31 8/18/31 13/34/31
f 8/19/32 7/17/32 13/34/32
f 8/20/33 18/45/33 50/97/33 45/87/33
f 8/20/34 45/88/34 46/89/34
f 46/90/35 51/100/35 8/20/35
f 14/35/36 18/46/36 8/20/36
f 48/93/37 22/57/37 47/92/37
f 49/95/38 21/54/38 22/58/38 48/94/38
f 21/55/39 49/96/39 39/76/39
f 12/31/40 42/82/40 43/84/40
f 23/59/41 35/71/41 33/69/41 34/70/41 38/74/41 32/68/41 31/67/41 30/66/41 29/65/41 28/64/41 27/63/41 37/73/41 36/72/41 26/62/41 25/61/41 24/60/41
f 17/44/42 15/38/42 19/49/42 20/52/42
f 11/29/43 9/23/43 5/14/43 15/39/43
f 10/26/44 54/106/44 50/98/44 18/46/44 14/36/44
