# Blender 3.3.1
# www.blender.org
mtllib StoneVariant2.mtl
g Stone2_Cube_cell.061
v 0.075955 -0.352653 0.306853
v 0.596134 -0.210948 0.046971
v -0.195030 -0.184131 0.411651
v 0.607857 0.102528 0.002236
v -0.153311 -0.399148 0.236607
v -0.250001 -0.406612 0.057873
v -0.264617 -0.381544 -0.281639
v -0.183106 -0.336919 -0.584908
v 0.710067 -0.167761 -0.156982
v -0.035766 -0.302538 -0.591564
v -0.198118 0.242153 -0.103387
v 0.397811 0.159757 -0.227549
v 0.572770 0.168727 -0.132436
v -0.317910 0.114912 -0.242828
v -0.261396 -0.155740 -0.555760
v -0.210459 -0.222726 -0.635277
v -0.072361 -0.212957 -0.631829
v -0.366766 -0.173016 0.305075
v -0.334949 -0.236152 0.348771
v -0.454038 -0.003852 0.011189
v -0.451058 -0.010777 -0.143058
v 0.668333 0.114262 -0.104198
v -0.315100 -0.276027 0.318074
v 0.720922 -0.128521 -0.177790
v -0.010379 -0.248200 -0.613263
v -0.156346 0.301948 0.185914
v -0.148590 0.309118 0.178287
v -0.176131 0.283588 0.205425
v -0.025253 0.294538 0.161460
v 0.122785 0.276781 0.141471
v 0.144918 0.264912 0.145967
v -0.191309 0.224990 0.256548
v -0.190026 0.270631 0.219178
v 0.082123 0.167489 0.239693
v 0.158462 0.193372 0.200926
v 0.008496 0.142774 0.276883
v 0.176564 0.247598 0.152674
v 0.230247 0.217927 0.164295
v -0.125555 0.097939 0.344459
v -0.185870 0.214273 0.263988
v 0.082123 0.167489 0.239693
v 0.008496 0.142774 0.276883
v -0.025253 0.294538 0.161460
v 0.122785 0.276781 0.141471
v 0.144918 0.264912 0.145967
v 0.176564 0.247598 0.152674
v 0.230247 0.217927 0.164295
v -0.125555 0.097939 0.344459
v -0.191309 0.224990 0.256548
v -0.185870 0.214273 0.263988
v -0.156346 0.301948 0.185914
v -0.148590 0.309118 0.178287
v -0.176131 0.283588 0.205425
v -0.190026 0.270631 0.219178
v 0.158462 0.193372 0.200926
vn 0.2234 -0.9713 -0.0816
vn 0.2229 -0.9713 -0.0830
vn -0.8936 -0.3422 -0.2905
vn -0.8941 -0.3412 -0.2901
vn -0.8963 -0.3303 -0.2959
vn -0.1035 -0.6399 0.7614
vn -0.0352 0.7531 -0.6570
vn -0.0326 0.7535 -0.6567
vn 0.4327 0.3537 -0.8293
vn 0.4383 0.3451 -0.8299
vn 0.4406 0.3364 -0.8323
vn 0.0526 -0.3915 -0.9187
vn 0.4996 -0.5124 -0.6985
vn 0.2236 -0.9712 -0.0825
vn -0.8911 -0.4539 0.0048
vn -0.8926 -0.4509 0.0042
vn -0.8930 -0.4501 0.0030
vn 0.0828 0.9661 -0.2447
vn -0.7035 0.7092 -0.0454
vn -0.7630 0.4144 -0.4962
vn -0.7019 0.7108 -0.0456
vn -0.7029 0.7099 -0.0448
vn 0.0810 0.9664 -0.2440
vn 0.4420 0.3465 -0.8274
vn 0.3983 0.8617 0.3143
vn 0.5003 -0.5096 -0.7000
vn 0.8677 0.0377 0.4956
vn 0.8711 0.0192 0.4907
vn 0.2245 -0.9712 -0.0803
vn 0.2214 -0.9720 -0.0792
vn -0.4804 -0.8261 0.2944
vn -0.1049 -0.6389 0.7621
vn -0.8934 -0.4493 0.0060
vn -0.8958 -0.4443 0.0103
vn -0.7871 0.4038 0.4662
vn -0.7037 0.7092 -0.0428
vn 0.4197 0.1113 0.9008
vn 0.4180 0.1115 0.9016
vn 0.4018 0.8552 0.3273
vn 0.4009 0.8576 0.3223
vn 0.8670 0.0385 0.4969
vn 0.4208 0.1127 0.9001
vn 0.0504 -0.3926 -0.9183
vn 0.4172 0.1121 0.9019
vn -0.4903 0.3152 0.8125
vn 0.1776 0.6204 0.7639
vn -0.4840 0.3139 0.8168
vn -0.0368 0.7525 -0.6575
vt 1.000000 0.000000
vt 0.000000 0.000000
vt 1.000000 1.000000
vt 0.000000 0.000000
vt 1.000000 0.000000
vt 1.000000 1.000000
vt 0.000000 0.000000
vt 1.000000 0.000000
vt 1.000000 1.000000
vt 1.000000 0.000000
vt 0.000000 0.000000
vt 1.000000 0.000000
vt 0.000000 0.000000
vt 1.000000 0.000000
vt 0.000000 0.000000
vt 1.000000 1.000000
vt 0.000000 0.000000
vt 1.000000 0.000000
vt 1.000000 1.000000
vt 1.000000 1.000000
vt 0.000000 0.000000
vt 1.000000 0.000000
vt 1.000000 1.000000
vt 0.000000 0.000000
vt 1.000000 1.000000
vt 1.000000 0.000000
vt 0.000000 0.000000
vt 1.000000 0.000000
vt 1.000000 1.000000
vt 0.000000 0.000000
vt 1.000000 0.000000
vt 0.000000 0.000000
vt 1.000000 0.000000
vt 1.000000 1.000000
vt 1.000000 0.000000
vt 1.000000 1.000000
vt 0.000000 0.000000
vt 1.000000 0.000000
vt 0.000000 0.000000
vt 1.000000 0.000000
vt 0.000000 0.000000
vt 1.000000 1.000000
vt 1.000000 1.000000
vt 0.000000 0.000000
vt 1.000000 0.000000
vt 0.000000 0.000000
vt 1.000000 0.000000
vt 0.000000 0.000000
vt 1.000000 1.000000
vt 1.000000 0.000000
vt 0.000000 0.000000
vt 1.000000 0.000000
vt 1.000000 1.000000
vt 0.000000 0.000000
vt 1.000000 0.000000
vt 1.000000 1.000000
vt 0.000000 0.000000
vt 1.000000 0.000000
vt 1.000000 1.000000
vt 0.000000 0.000000
vt 1.000000 0.000000
vt 1.000000 1.000000
vt 0.000000 0.000000
vt 1.000000 0.000000
vt 1.000000 1.000000
vt 0.000000 0.000000
vt 1.000000 0.000000
vt 0.811055 0.542283
vt 0.809776 0.541275
vt 0.814321 0.544865
vt 0.794634 0.545295
vt 0.776470 0.550159
vt 0.774127 0.552323
vt 0.818627 0.553784
vt 0.816617 0.546688
vt 0.786076 0.566620
vt 0.775292 0.563666
vt 0.796466 0.569430
vt 0.770791 0.555470
vt 0.765143 0.560855
vt 0.815377 0.574520
vt 0.818366 0.555532
vt 1.000000 0.154930
vt 0.154930 0.154930
vt 0.268637 0.000000
vt 0.268637 0.268637
vt 0.159300 0.159300
vt 1.000000 0.159300
vt 0.203943 0.000000
vt 0.203943 0.203943
vt 0.207944 0.000000
vt 1.000000 0.792056
vt 1.000000 0.718396
vt 0.718396 0.718396
vt 0.280200 0.000000
vt 0.719800 0.000000
vt 1.000000 0.267091
vt 0.267091 0.267091
vt 0.829522 0.000000
vt 0.170478 0.000000
vt 0.170393 0.170393
vt 1.000000 0.170393
vt 0.095483 0.095483
vt 1.000000 0.095483
vt 0.158077 0.000000
vt 0.158077 0.158077
vt 0.882954 0.000000
vt 1.000000 0.117046
vt 1.000000 0.116389
vt 0.116389 0.116389
vt 0.853361 0.000000
vt 1.000000 0.146639
s 0
g off
g Stone2_Material
usemtl Material
f 1/2/1 6/14/1 7/19/1 9/21/1
f 10/24/2 7/18/2 8/20/2
f 7/17/3 16/40/3 8/20/3
f 7/17/4 21/55/4 16/42/4
f 21/54/5 15/38/5 16/42/5
f 1/2/6 3/8/6 23/62/6 5/13/6
f 14/37/7 11/28/7 17/43/7
f 11/27/8 12/31/8 17/43/8
f 12/30/9 13/33/9 17/43/9
f 13/32/10 24/64/10 17/43/10
f 24/63/11 25/67/11 17/43/11
f 25/66/12 10/26/12 17/43/12
f 25/66/13 9/22/13 10/25/13
f 9/21/14 7/18/14 10/25/14
f 6/15/15 23/61/15 7/19/15
f 23/60/16 20/52/16 7/19/16
f 20/51/17 21/55/17 7/19/17
f 44/89/18 13/33/18 12/31/18 11/29/18 43/87/18
f 20/51/19 14/35/19 21/56/19
f 14/37/20 15/38/20 21/56/20
f 11/28/21 14/36/21 51/103/21 52/105/21
f 51/104/22 14/36/22 20/51/22 53/107/22
f 43/88/23 11/29/23 52/106/23
f 22/57/24 24/64/24 13/34/24
f 13/34/25 44/90/25 45/91/25 22/58/25
f 9/21/26 25/67/26 24/65/26
f 22/57/27 2/5/27 24/65/27
f 2/4/28 9/22/28 24/65/28
f 2/4/29 1/1/29 9/23/29
f 1/2/30 5/12/30 6/16/30
f 5/13/31 23/61/31 6/16/31
f 3/7/32 19/50/32 23/62/32
f 19/48/33 20/52/33 23/62/33
f 19/48/34 18/47/34 20/53/34
f 20/53/35 18/46/35 49/99/35 54/109/35
f 54/110/36 53/108/36 20/53/36
f 41/83/37 1/3/37 2/4/37 55/111/37
f 42/85/38 3/8/38 1/3/38 41/84/38
f 46/93/39 47/95/39 4/10/39
f 46/94/40 4/11/40 22/58/40 45/92/40
f 4/11/41 2/5/41 22/59/41
f 47/96/42 55/112/42 2/6/42 4/11/42
f 17/44/43 10/26/43 8/20/43 16/41/43
f 48/97/44 3/9/44 42/86/44
f 50/101/45 49/100/45 18/47/45 19/49/45
f 35/77/46 38/80/46 37/79/46 31/73/46 30/72/46 29/71/46 27/69/46 26/68/46 28/70/46 33/75/46 32/74/46 40/82/46 39/81/46 36/78/46 34/76/46
f 50/102/47 19/50/47 3/9/47 48/98/47
f 14/37/48 17/45/48 16/42/48 15/39/48
