# Blender 3.3.1
# www.blender.org
mtllib StoneVariant5.mtl
g Cube_cell.020_Cube_cell.019
v 15.504370 -0.028273 5.193991
v 15.533584 0.114364 4.216681
v 15.712811 0.048696 4.950984
v 15.581130 -0.012285 5.193663
v 15.351554 -0.029747 5.199965
v 14.947976 0.434208 4.768172
v 15.577564 0.289756 4.171720
v 15.579460 0.264941 4.170576
v 14.890150 0.346748 4.824773
v 15.756785 0.489867 4.496148
v 15.589297 0.291128 4.168647
v 15.305619 0.627176 4.995185
v 15.599599 0.672005 4.946212
v 15.762384 0.197797 4.923519
v 15.773964 0.477816 4.577543
v 15.242827 0.473947 5.153606
v 15.375408 0.288522 5.253075
v 15.353336 0.386111 5.243544
v 15.703033 0.447562 5.176473
v 15.705439 0.574668 5.044913
v 15.645306 0.369954 5.257431
v 15.420578 0.364034 5.264861
v 14.915654 -0.052097 4.806741
v 14.926120 -0.063484 4.814960
v 14.993114 -0.060649 4.732908
v 15.000263 -0.068208 4.738132
v 15.004835 -0.061970 4.721784
v 15.011500 -0.062728 4.715470
v 14.915654 -0.052097 4.806741
v 14.926120 -0.063484 4.814960
v 14.993114 -0.060649 4.732908
v 15.004835 -0.061970 4.721784
v 15.011500 -0.062728 4.715470
v 15.000263 -0.068208 4.738132
vn -0.6657 -0.0761 0.7423
vn -0.6654 -0.0753 0.7427
vn 0.0065 0.7181 0.6959
vn 0.0400 -0.1710 0.9845
vn 0.1997 -0.9704 -0.1357
vn 0.0370 -0.1688 0.9850
vn 0.0203 -0.1660 0.9859
vn -0.6581 -0.0757 0.7491
vn -0.6646 -0.0751 0.7434
vn 0.0042 0.7180 0.6961
vn -0.2172 0.8712 -0.4403
vn -0.6891 -0.0112 -0.7246
vn -0.2053 0.8813 -0.4257
vn -0.2044 0.8805 -0.4277
vn -0.2049 0.8797 -0.4291
vn -0.6884 -0.0133 -0.7252
vn -0.6198 0.6723 0.4048
vn 0.2015 -0.9702 -0.1345
vn 0.0100 0.7183 0.6957
vn 0.0125 -0.9972 0.0735
vn 0.0050 0.7025 0.7117
vn 0.8797 -0.2182 0.4225
vn 0.8810 -0.2163 0.4208
vn -0.2941 0.0268 0.9554
vn 0.9033 -0.3483 -0.2506
vn 0.9014 -0.3525 -0.2515
vn 0.8938 -0.3559 -0.2729
vn -0.2560 0.0250 -0.9663
vn -0.6787 -0.0180 -0.7342
vn 0.0132 0.7190 0.6949
vn 0.6986 0.7141 -0.0450
vn 0.7041 0.7088 -0.0437
vn 0.9101 -0.3365 -0.2419
vn 0.9045 -0.3465 -0.2487
vn 0.8816 -0.2158 0.4199
vn 0.9863 0.1092 0.1236
vn 0.9865 0.1098 0.1219
vn -0.4909 -0.7594 -0.4270
vn -0.6906 -0.0115 -0.7232
vt 1.000000 0.000000
vt 1.000000 1.000000
vt 0.000000 0.000000
vt 0.000000 0.000000
vt 1.000000 0.000000
vt 0.000000 0.000000
vt 1.000000 0.000000
vt 1.000000 1.000000
vt 1.000000 0.000000
vt 0.000000 0.000000
vt 0.000000 0.000000
vt 1.000000 1.000000
vt 1.000000 0.000000
vt 1.000000 1.000000
vt 1.000000 0.000000
vt 0.000000 0.000000
vt 0.000000 0.000000
vt 1.000000 0.000000
vt 1.000000 1.000000
vt 1.000000 0.000000
vt 0.000000 0.000000
vt 1.000000 1.000000
vt 0.000000 0.000000
vt 1.000000 0.000000
vt 1.000000 1.000000
vt 0.000000 0.000000
vt 1.000000 0.000000
vt 1.000000 1.000000
vt 1.000000 0.000000
vt 0.000000 0.000000
vt 0.000000 0.000000
vt 1.000000 0.000000
vt 1.000000 1.000000
vt 1.000000 0.000000
vt 0.000000 0.000000
vt 0.000000 0.000000
vt 1.000000 0.000000
vt 1.000000 0.000000
vt 1.000000 1.000000
vt 0.000000 0.000000
vt 1.000000 0.000000
vt 1.000000 0.000000
vt 0.000000 0.000000
vt 0.000000 0.000000
vt 1.000000 0.000000
vt 1.000000 1.000000
vt 0.000000 0.000000
vt 1.000000 0.000000
vt 1.000000 1.000000
vt 1.000000 0.000000
vt 0.000000 0.000000
vt 1.000000 1.000000
vt 0.000000 0.000000
vt 1.000000 0.000000
vt 1.000000 1.000000
vt 0.447609 0.661713
vt 0.448409 0.663751
vt 0.460725 0.658877
vt 0.461292 0.660217
vt 0.462707 0.658454
vt 0.463833 0.658215
vt 0.029573 0.029573
vt 1.000000 0.029573
vt 0.022265 0.000000
vt 1.000000 0.977735
vt 1.000000 0.016039
vt 0.983961 0.000000
vt 0.981182 0.000000
vt 0.981182 0.981182
vt 0.967298 0.967298
vt 1.000000 0.967298
vt 1.000000 0.987439
vt 0.012561 0.000000
s 0
g off
g Cube_cell.020_Material
usemtl Material
f 9/22/1 29/62/1 30/64/1 5/13/1
f 5/11/2 16/38/2 9/22/2
f 13/31/3 12/29/3 18/42/3 21/52/3
f 4/10/4 21/50/4 5/12/4 1/2/4
f 2/4/5 3/7/5 1/1/5 34/72/5 33/70/5
f 21/51/6 22/54/6 5/12/6
f 22/53/7 17/41/7 5/12/7
f 17/40/8 18/42/8 5/12/8
f 18/43/9 16/38/9 5/12/9
f 18/43/10 12/29/10 16/39/10
f 11/26/11 7/18/11 6/14/11
f 31/66/12 6/14/12 7/17/12 32/68/12
f 12/30/13 13/32/13 6/14/13
f 13/31/14 10/24/14 6/14/14
f 10/23/15 11/27/15 6/14/15
f 32/69/16 7/17/16 2/5/16 33/71/16
f 12/30/17 6/15/17 9/22/17 16/39/17
f 3/6/18 4/9/18 1/2/18
f 19/44/19 13/32/19 21/52/19
f 1/3/20 5/13/20 30/65/20 34/73/20
f 18/43/21 22/54/21 21/52/21
f 4/10/22 3/7/22 21/52/22
f 3/6/23 19/45/23 21/52/23
f 18/43/24 17/41/24 22/55/24
f 10/23/25 3/7/25 11/28/25
f 3/6/26 2/5/26 11/28/26
f 2/4/27 8/20/27 11/28/27
f 8/21/28 7/18/28 11/28/28
f 8/21/29 2/5/29 7/19/29
f 19/44/30 20/48/30 13/33/30
f 20/47/31 10/24/31 13/33/31
f 20/47/32 15/37/32 10/25/32
f 15/36/33 14/34/33 10/25/33
f 14/35/34 3/7/34 10/25/34
f 14/35/35 19/45/35 3/8/35
f 14/35/36 20/48/36 19/46/36
f 14/35/37 15/37/37 20/49/37
f 23/56/38 25/58/38 27/60/38 28/61/38 26/59/38 24/57/38
f 6/16/39 31/67/39 29/63/39 9/22/39
