# Blender 3.3.1
# www.blender.org
mtllib StoneVariant3.mtl
g Cube_cell.043_Cube_cell.042
v 15.635520 0.231326 2.010690
v 14.878698 0.246702 1.564874
v 15.711162 -0.134338 1.731751
v 15.562662 -0.277951 1.513912
v 15.103369 -0.074518 1.414417
v 14.871523 0.242004 1.555465
v 15.578012 0.649644 1.812040
v 15.246909 0.655026 1.616245
v 15.709645 0.411112 1.982804
v 15.777751 0.631889 1.588704
v 15.609984 0.621907 1.169166
v 15.910286 0.437990 1.697811
v 15.977714 0.024919 1.407942
v 15.897886 0.474537 1.707411
v 15.910335 -0.062927 1.147099
v 15.660804 0.235643 0.869105
v 15.605155 0.572390 1.103175
v 15.630848 0.292422 0.859166
v 15.642851 0.645768 1.782124
v 15.158515 0.649041 1.386272
v 15.551171 0.624331 1.172073
v 15.799431 0.470610 1.875736
v 15.895252 0.464794 1.731076
v 14.852997 0.162839 1.210884
v 14.854238 0.173167 1.198039
v 14.789653 0.270757 1.258487
v 14.786709 0.260037 1.274840
v 14.841435 0.215120 1.186743
vn -0.7324 0.6271 0.2652
vn -0.4770 0.3275 0.8156
vn 0.0404 0.9983 -0.0412
vn -0.4755 0.3232 0.8182
vn 0.0390 0.9983 -0.0437
vn -0.3560 0.5944 -0.7211
vn -0.3575 0.5930 -0.7215
vn -0.3595 0.5937 -0.7199
vn -0.7337 0.6268 0.2624
vn 0.8533 0.3855 -0.3512
vn -0.4469 -0.6163 0.6485
vn -0.4158 -0.6077 0.6766
vn 0.8032 -0.2472 0.5420
vn 0.5904 0.7213 0.3622
vn 0.3454 0.6648 0.6624
vn 0.3481 0.6646 0.6612
vn -0.7471 0.6097 0.2650
vn 0.5904 0.7224 0.3600
vn 0.0436 0.9982 -0.0412
vn 0.8530 0.3870 -0.3503
vn 0.0033 0.7997 -0.6003
vn -0.3469 0.5979 -0.7226
vn 0.8512 0.3870 -0.3545
vn -0.3339 -0.3307 -0.8827
vn -0.8546 -0.3612 -0.3730
vn -0.8644 -0.3554 -0.3557
vn -0.8682 -0.3287 -0.3718
vn -0.3327 -0.3385 -0.8802
vn -0.7512 -0.6333 0.1863
vn -0.7511 -0.6338 0.1848
vn -0.2055 -0.7529 -0.6252
vn -0.1989 -0.7506 -0.6302
vn -0.1977 -0.7514 -0.6295
vn -0.1973 -0.7526 -0.6282
vn 0.6036 -0.7898 0.1092
vn 0.8051 -0.2348 0.5447
vn 0.8087 -0.2223 0.5446
vn 0.9409 0.2632 0.2131
vn 0.8580 0.3814 -0.3440
vn 0.8540 0.3849 -0.3502
vn 0.6045 -0.7890 0.1096
vn 0.8042 -0.2478 0.5402
vn -0.4133 -0.6049 0.6807
vt 0.000000 0.000000
vt 1.000000 1.000000
vt 1.000000 0.000000
vt 0.000000 0.000000
vt 1.000000 0.000000
vt 1.000000 1.000000
vt 1.000000 0.000000
vt 1.000000 1.000000
vt 0.000000 0.000000
vt 1.000000 0.000000
vt 1.000000 1.000000
vt 0.000000 0.000000
vt 1.000000 0.000000
vt 1.000000 1.000000
vt 0.000000 0.000000
vt 1.000000 0.000000
vt 1.000000 1.000000
vt 0.000000 0.000000
vt 1.000000 0.000000
vt 1.000000 1.000000
vt 1.000000 1.000000
vt 1.000000 0.000000
vt 0.000000 0.000000
vt 1.000000 1.000000
vt 1.000000 0.000000
vt 0.000000 0.000000
vt 0.000000 0.000000
vt 1.000000 0.000000
vt 1.000000 1.000000
vt 0.000000 0.000000
vt 1.000000 0.000000
vt 1.000000 0.000000
vt 0.000000 0.000000
vt 0.000000 0.000000
vt 1.000000 0.000000
vt 1.000000 1.000000
vt 0.000000 0.000000
vt 1.000000 0.000000
vt 1.000000 1.000000
vt 1.000000 0.000000
vt 0.000000 0.000000
vt 1.000000 0.000000
vt 0.000000 0.000000
vt 0.000000 0.000000
vt 1.000000 0.000000
vt 1.000000 1.000000
vt 0.000000 0.000000
vt 1.000000 0.000000
vt 1.000000 1.000000
vt 0.000000 0.000000
vt 1.000000 0.000000
vt 1.000000 1.000000
vt 0.000000 0.000000
vt 1.000000 0.000000
vt 1.000000 1.000000
vt 0.000000 0.000000
vt 1.000000 0.000000
vt 1.000000 1.000000
vt 0.000000 0.000000
vt 1.000000 0.000000
vt 1.000000 1.000000
vt 1.000000 0.000000
vt 0.000000 0.000000
vt 1.000000 0.000000
vt 0.000000 0.000000
vt 0.000000 0.000000
vt 1.000000 1.000000
vt 1.000000 0.000000
vt 1.000000 0.000000
vt 0.000000 0.000000
vt 0.000000 0.000000
vt 1.000000 0.000000
vt 1.000000 1.000000
s 0
g off
g Cube_cell.043_Material
usemtl Material
f 20/50/1 2/5/1 8/21/1
f 2/4/2 7/19/2 8/21/2
f 19/47/3 11/27/3 20/51/3 8/21/3 7/18/3
f 1/1/4 9/22/4 7/19/4 2/6/4
f 11/27/5 21/54/5 20/52/5
f 21/53/6 18/45/6 20/52/6
f 18/44/7 28/72/7 20/52/7
f 28/71/8 26/68/8 20/52/8
f 26/66/9 2/5/9 20/52/9
f 16/41/10 17/42/10 11/29/10 14/34/10 15/37/10
f 6/15/11 5/13/11 2/6/11
f 5/12/12 4/10/12 2/6/12
f 3/9/13 12/30/13 9/22/13 1/2/13
f 23/59/14 14/35/14 19/49/14 22/56/14
f 9/23/15 19/48/15 7/20/15
f 9/23/16 22/57/16 19/49/16
f 27/70/17 6/16/17 2/6/17 26/67/17
f 14/34/18 10/25/18 19/49/18
f 10/26/19 11/28/19 19/49/19
f 10/26/20 14/35/20 11/29/20
f 17/43/21 21/54/21 11/29/21
f 17/43/22 18/45/22 21/55/22
f 17/43/23 16/40/23 18/46/23
f 16/41/24 28/72/24 18/46/24
f 25/65/25 24/62/25 28/73/25
f 24/63/26 27/69/26 28/73/26
f 27/70/27 26/68/27 28/73/27
f 16/41/28 25/64/28 28/73/28
f 27/70/29 5/13/29 6/17/29
f 27/70/30 24/62/30 5/14/30
f 24/63/31 25/64/31 5/14/31
f 25/65/32 16/40/32 5/14/32
f 16/41/33 15/38/33 5/14/33
f 15/37/34 4/10/34 5/14/34
f 15/37/35 3/7/35 4/11/35
f 12/30/36 22/57/36 9/24/36
f 12/30/37 23/60/37 22/58/37
f 12/30/38 14/35/38 23/61/38
f 12/30/39 13/32/39 14/36/39
f 13/33/40 15/38/40 14/36/40
f 13/33/41 3/7/41 15/39/41
f 13/33/42 12/31/42 3/8/42
f 3/9/43 1/3/43 2/6/43 4/11/43
